<?xml version="1.0" encoding="UTF-8"?>
<svg version="1.1" xmlns="http://www.w3.org/2000/svg" width="313" height="56">
<path d="M0 0 C103.29 0 206.58 0 313 0 C313 18.48 313 36.96 313 56 C209.71 56 106.42 56 0 56 C0 37.52 0 19.04 0 0 Z " fill="#FCFCFC" transform="translate(0,0)"/>
<path d="M0 0 C3.60477703 1.67808586 5.27989088 2.85437186 7.375 6.1875 C8.89704595 13.03670677 8.52903756 18.79376154 5 25 C-0.07969615 29.70801107 -3.39737881 30.34234347 -10.1640625 30.2890625 C-14.39126932 29.85819018 -16.60519515 28.52804617 -20 26 C-23.26765119 21.09852321 -22.79896781 15.71675241 -22 10 C-20.45622191 7.04276274 -18.58661462 5.07641082 -16 3 C-15.39414063 2.45472656 -14.78828125 1.90945312 -14.1640625 1.34765625 C-9.9136081 -1.29928737 -4.81709006 -0.5795964 0 0 Z " fill="#161616" transform="translate(217,16)"/>
<path d="M0 0 C9.9 0 19.8 0 30 0 C31.06561464 5.3280732 31.01158954 5.83016324 28.54296875 10.23046875 C28.00736328 11.19791016 27.47175781 12.16535156 26.91992188 13.16210938 C26.34822266 14.16048828 25.77652344 15.15886719 25.1875 16.1875 C24.62740234 17.19748047 24.06730469 18.20746094 23.49023438 19.24804688 C19.34120916 26.65879084 19.34120916 26.65879084 17 29 C14.62890625 29.1328125 14.62890625 29.1328125 12 28 C10.24495329 25.47078356 9.11948457 22.70797304 7.9375 19.875 C7.28280597 18.37114836 6.62527653 16.86852776 5.96484375 15.3671875 C5.64628418 14.63209961 5.32772461 13.89701172 4.99951172 13.13964844 C4.03106075 11.06649154 2.94010693 9.15022132 1.75390625 7.1953125 C0 4 0 4 0 0 Z " fill="#111111" transform="translate(234,16)"/>
<path d="M0 0 C2.39526367 0.15527344 2.39526367 0.15527344 5 1 C6.4855957 2.96191406 6.4855957 2.96191406 7.67578125 5.515625 C8.11083984 6.43730469 8.54589844 7.35898437 8.99414062 8.30859375 C9.42919922 9.27925781 9.86425781 10.24992187 10.3125 11.25 C10.76689453 12.20519531 11.22128906 13.16039062 11.68945312 14.14453125 C13.7740951 18.65237359 15.29016277 21.95849235 15 27 C16.32 27 17.64 27 19 27 C19.33 25.68 19.66 24.36 20 23 C20.33 23 20.66 23 21 23 C21 25.31 21 27.62 21 30 C10.93395765 30.10849626 1.02887177 29.9767249 -9 29 C-7.65044238 22.53255481 -5.95379794 16.28927971 -3.9375 10 C-3.66873047 9.14277344 -3.39996094 8.28554688 -3.12304688 7.40234375 C-1.13001778 1.13001778 -1.13001778 1.13001778 0 0 Z " fill="#151515" transform="translate(95,16)"/>
<path d="M0 0 C0.99 0 1.98 0 3 0 C11 22.85106383 11 22.85106383 11 30 C3.41 30 -4.18 30 -12 30 C-10.87435121 22.12045848 -10.87435121 22.12045848 -9.2578125 18.5546875 C-8.91363281 17.78769531 -8.56945312 17.02070312 -8.21484375 16.23046875 C-7.67537109 15.06451172 -7.67537109 15.06451172 -7.125 13.875 C-6.77308594 13.08996094 -6.42117188 12.30492187 -6.05859375 11.49609375 C-2.20411017 2.99903515 -2.20411017 2.99903515 0 0 Z " fill="#161616" transform="translate(288,17)"/>
<path d="M0 0 C0.99 0 1.98 0 3 0 C11 22.85106383 11 22.85106383 11 30 C3.41 30 -4.18 30 -12 30 C-10.87435121 22.12045848 -10.87435121 22.12045848 -9.2578125 18.5546875 C-8.91363281 17.78769531 -8.56945312 17.02070312 -8.21484375 16.23046875 C-7.67537109 15.06451172 -7.67537109 15.06451172 -7.125 13.875 C-6.77308594 13.08996094 -6.42117187 12.30492187 -6.05859375 11.49609375 C-2.20411017 2.99903515 -2.20411017 2.99903515 0 0 Z " fill="#161616" transform="translate(136,16)"/>
<path d="M0 0 C0.99 0 1.98 0 3 0 C11 22.85106383 11 22.85106383 11 30 C3.41 30 -4.18 30 -12 30 C-10.87435121 22.12045848 -10.87435121 22.12045848 -9.2578125 18.5546875 C-8.91363281 17.78769531 -8.56945313 17.02070312 -8.21484375 16.23046875 C-7.67537109 15.06451172 -7.67537109 15.06451172 -7.125 13.875 C-6.77308594 13.08996094 -6.42117187 12.30492187 -6.05859375 11.49609375 C-2.20411017 2.99903515 -2.20411017 2.99903515 0 0 Z " fill="#161616" transform="translate(58,16)"/>
<path d="M0 0 C2.475 0.495 2.475 0.495 5 1 C6.46162107 3.30578181 7.55071957 5.33817354 8.625 7.8125 C10.45473457 11.83874025 12.2928461 15.48069992 15 19 C15 19.66 15 20.32 15 21 C15.66 21 16.32 21 17 21 C17.33 14.73 17.66 8.46 18 2 C19.32 1.67 20.64 1.34 22 1 C21.56408185 10.14280961 20.9577539 19.02854522 19 28 C17.68 28 16.36 28 15 28 C13.22937284 25.55385626 11.76564772 23.24880543 10.3125 20.625 C9.90966797 19.92632812 9.50683594 19.22765625 9.09179688 18.5078125 C7.6711357 16.03295886 6.2763935 13.552787 5 11 C3.81968762 14.84841348 3.66764649 18.758279 3.4375 22.75 C3.39431641 23.44738281 3.35113281 24.14476563 3.30664062 24.86328125 C3.20110404 26.57531922 3.1001009 28.28763561 3 30 C2.01 30 1.02 30 0 30 C0 20.1 0 10.2 0 0 Z " fill="#0F0F0F" transform="translate(162,16)"/>
<path d="M0 0 C7.26 0 14.52 0 22 0 C19.74609781 6.76170656 19.74609781 6.76170656 18.125 9.61328125 C17.77953125 10.22107422 17.4340625 10.82886719 17.078125 11.45507812 C16.72234375 12.06802734 16.3665625 12.68097656 16 13.3125 C15.64421875 13.94478516 15.2884375 14.57707031 14.921875 15.22851562 C12.25352444 19.87323778 12.25352444 19.87323778 10 21 C8.32666842 17.87852455 6.66248284 14.75226502 5 11.625 C4.52304688 10.73554688 4.04609375 9.84609375 3.5546875 8.9296875 C3.10351562 8.07890625 2.65234375 7.228125 2.1875 6.3515625 C1.76855469 5.56604004 1.34960938 4.78051758 0.91796875 3.97119141 C0 2 0 2 0 0 Z " fill="#F6F6F6" transform="translate(239,20)"/>
<path d="M0 0 C2.12493141 -0.02693575 4.24995912 -0.04636628 6.375 -0.0625 C7.55835938 -0.07410156 8.74171875 -0.08570313 9.9609375 -0.09765625 C13 0 13 0 15 1 C15 1.99 15 2.98 15 4 C13.02 4 11.04 4 9 4 C9 7.3 9 10.6 9 14 C10.32 14 11.64 14 13 14 C13 14.99 13 15.98 13 17 C12.01 17 11.02 17 10 17 C10 19.97 10 22.94 10 26 C11.65 26 13.3 26 15 26 C15 27.32 15 28.64 15 30 C9.72 30 4.44 30 -1 30 C-1 29.34 -1 28.68 -1 28 C2.465 27.505 2.465 27.505 6 27 C6 23.7 6 20.4 6 17 C5.01 17 4.02 17 3 17 C3 16.01 3 15.02 3 14 C3.66 14 4.32 14 5 14 C5 10.7 5 7.4 5 4 C3.35 3.67 1.7 3.34 0 3 C0 2.01 0 1.02 0 0 Z " fill="#232323" transform="translate(16,15)"/>
<path d="M0 0 C3.11223004 3.65806731 4.81550196 7.75570185 6.6875 12.125 C7.00783203 12.85332031 7.32816406 13.58164062 7.65820312 14.33203125 C10 19.73464152 10 19.73464152 10 22 C4.72 22 -0.56 22 -6 22 C-5.50253785 15.65735753 -4.61508479 4.61508479 0 0 Z " fill="#E9E9E9" transform="translate(97,21)"/>
<path d="M0 0 C0 7.26 0 14.52 0 22 C-7.56637168 19.47787611 -7.56637168 19.47787611 -10 15 C-10 10.29148203 -9.68680615 8.05310276 -7.125 4.125 C-3 0 -3 0 0 0 Z " fill="#F2F2F2" transform="translate(208,20)"/>
<path d="M0 0 C5 1 5 1 6.78515625 2.76171875 C8.92597245 6.70605214 8.63426864 10.64023765 8 15 C6.9150208 17.65373701 5.65142705 19.62607362 4 22 C3.01 22 2.02 22 1 22 C0.67 14.74 0.34 7.48 0 0 Z " fill="#F5F5F5" transform="translate(211,20)"/>
<path d="M0 0 C7.92 0 15.84 0 24 0 C25.10943683 5.54718413 24.7803142 6.20885553 22.0625 10.8125 C21.49660156 11.78832031 20.93070312 12.76414062 20.34765625 13.76953125 C19.90292969 14.50558594 19.45820313 15.24164063 19 16 C18.01 16 17.02 16 16 16 C17.34268655 11.66208962 18.93212679 8.13574643 21 4 C13.41 4.33 5.82 4.66 -2 5 C-2 4.34 -2 3.68 -2 3 C5.26 3 12.52 3 20 3 C20 2.34 20 1.68 20 1 C13.4 1 6.8 1 0 1 C0 0.67 0 0.34 0 0 Z " fill="#393939" transform="translate(240,16)"/>
<path d="M0 0 C3.63 0 7.26 0 11 0 C11.66 2.31 12.32 4.62 13 7 C8.05 7 3.1 7 -2 7 C-1 2 -1 2 0 0 Z " fill="#E1E1E1" transform="translate(282,37)"/>
<path d="M0 0 C3.63 0 7.26 0 11 0 C11.66 2.31 12.32 4.62 13 7 C8.05 7 3.1 7 -2 7 C-1 2 -1 2 0 0 Z " fill="#E1E1E1" transform="translate(130,36)"/>
<path d="M0 0 C3.63 0 7.26 0 11 0 C11.66 2.31 12.32 4.62 13 7 C8.05 7 3.1 7 -2 7 C-1 2 -1 2 0 0 Z " fill="#E1E1E1" transform="translate(52,36)"/>
<path d="M0 0 C0.66 0.33 1.32 0.66 2 1 C1.34 1.66 0.68 2.32 0 3 C0 3.99 0 4.98 0 6 C-5.34883721 11 -5.34883721 11 -8 11 C-8.33 14.96 -8.66 18.92 -9 23 C-9.33 23 -9.66 23 -10 23 C-10.91210639 11.76757872 -10.91210639 11.76757872 -8.8046875 7.68359375 C-7.30079601 5.93409185 -5.789341 4.45329403 -4 3 C-3.21625 2.360625 -2.4325 1.72125 -1.625 1.0625 C-1.08875 0.711875 -0.5525 0.36125 0 0 Z " fill="#303030" transform="translate(205,16)"/>
<path d="M0 0 C2.45823172 3.68734758 3.01242616 6.69699971 4 11 C1.36 11 -1.28 11 -4 11 C-3.39301257 6.87248551 -1.96189209 3.6678852 0 0 Z " fill="#D4D4D4" transform="translate(288,23)"/>
<path d="M0 0 C2.45823172 3.68734758 3.01242616 6.69699971 4 11 C1.36 11 -1.28 11 -4 11 C-3.39301257 6.87248551 -1.96189209 3.6678852 0 0 Z " fill="#D4D4D4" transform="translate(136,22)"/>
<path d="M0 0 C2.45823172 3.68734758 3.01242616 6.69699971 4 11 C1.36 11 -1.28 11 -4 11 C-3.39301257 6.87248551 -1.96189209 3.6678852 0 0 Z " fill="#D4D4D4" transform="translate(58,22)"/>
<path d="M0 0 C0.33 0.99 0.66 1.98 1 3 C-1.15343189 6.23014784 -2.27059611 7.75686537 -6 9 C-4.68775452 5.06326356 -3.08089673 2.77280706 0 0 Z " fill="#1B1B1B" transform="translate(257,31)"/>
<path d="M0 0 C0.66 1.32 1.32 2.64 2 4 C1.01 5.32 0.02 6.64 -1 8 C-1.66 7.67 -2.32 7.34 -3 7 C-1.125 2.25 -1.125 2.25 0 0 Z " fill="#2E2E2E" transform="translate(287,19)"/>
<path d="M0 0 C0.66 1.32 1.32 2.64 2 4 C1.01 5.32 0.02 6.64 -1 8 C-1.66 7.67 -2.32 7.34 -3 7 C-1.125 2.25 -1.125 2.25 0 0 Z " fill="#2E2E2E" transform="translate(135,18)"/>
<path d="M0 0 C0.66 1.32 1.32 2.64 2 4 C1.01 5.32 0.02 6.64 -1 8 C-1.66 7.67 -2.32 7.34 -3 7 C-1.125 2.25 -1.125 2.25 0 0 Z " fill="#2E2E2E" transform="translate(57,18)"/>
</svg>
